<?xml version="1.0" encoding="UTF-8"?>
<svg width="16px" height="29px" viewBox="0 0 16 29" version="1.1" xmlns="http://www.w3.org/2000/svg" xmlns:xlink="http://www.w3.org/1999/xlink">
    <!-- Generator: Sketch 40.3 (33839) - http://www.bohemiancoding.com/sketch -->
    <title>Group</title>
    <desc>Created with Sketch.</desc>
    <defs></defs>
    <g id="Page-1" stroke="none" stroke-width="1" fill="none" fill-rule="evenodd">
        <g id="Custom-Preset" transform="translate(-578.000000, -2633.000000)" fill="#FFFFFF">
            <g id="Footer" transform="translate(-17.000000, 2403.000000)">
                <g id="Group-2" transform="translate(505.000000, 230.000000)">
                    <g id="noun_26636_cc" transform="translate(90.000000, 0.000000)">
                        <g id="Group">
                            <path d="M15.6110476,1.62094737 C15.575619,1.40497368 15.4262857,1.22410526 15.2217143,1.14893421 C13.9733333,0.692565789 12.3234286,0.240394737 10.5527619,0.23925 C9.16380952,0.238868421 7.69219048,0.522763158 6.32419048,1.32178947 L6.32419048,1.32178947 C5.63542857,1.72282895 5.09257143,2.22994737 4.6792381,2.80078947 C4.05714286,3.65819737 3.72609524,4.64496053 3.53942857,5.64660526 C3.38895238,6.45669737 3.33219048,7.28205263 3.30171429,8.08222368 C2.94514286,8.09061842 2.54095238,8.09328947 2.17295238,8.09328947 C1.85104762,8.09328947 1.55657143,8.09138158 1.34209524,8.08909211 C1.23504762,8.08794737 1.14857143,8.08718421 1.08838095,8.08642105 C1.02819048,8.08527632 0.996190476,8.08489474 0.995428571,8.08489474 C0.833904762,8.08260526 0.675428571,8.14671053 0.56,8.26003947 C0.444952381,8.37413158 0.379428571,8.53248684 0.380571429,8.69465789 L0.404571429,12.7241316 C0.406857143,13.0599211 0.678095238,13.3552632 1.01257143,13.3552632 L1.43504762,13.3552632 C2.02742857,13.3552632 3.13295238,13.3296974 3.98285714,13.3464868 C4.10857143,16.1144605 4.13828571,20.2626053 4.13828571,23.4812237 C4.13828571,24.8381184 4.13257143,26.0206316 4.128,26.8723158 C4.12495238,27.2970132 4.12266667,27.6347105 4.12038095,27.869 C4.11847619,28.1029079 4.11733333,28.2280658 4.11733333,28.2288289 C4.11580952,28.3906184 4.17904762,28.5466842 4.29371429,28.6619211 C4.408,28.7763947 4.56419048,28.8405 4.72609524,28.8397368 L10.1104762,28.8126447 C10.272381,28.8118816 10.4247619,28.7470132 10.5382857,28.6313947 C10.6521905,28.5161579 10.7142857,28.3623816 10.7127619,28.1998289 C10.7127619,28.1998289 10.6845714,24.8835263 10.6514286,21.3062237 C10.6232381,18.2299342 10.592,14.9651447 10.5740952,13.4445526 C10.9062857,13.4388289 11.2933333,13.4365395 11.6697143,13.4369211 C12.1097143,13.4369211 12.5379048,13.4395921 12.855619,13.4422632 C13.0140952,13.4434079 13.1455238,13.4449342 13.2365714,13.4460789 C13.328381,13.4472237 13.3794286,13.4476053 13.3794286,13.4476053 C13.5413333,13.4498947 13.6971429,13.3869342 13.8125714,13.2732237 C13.928,13.1595132 13.9931429,13.0045921 13.9935238,12.8424211 L14.000381,9.11019737 C14.0007619,8.94802632 13.9371429,8.74006579 13.8224762,8.62597368 C13.7081905,8.51188158 13.5542857,8.39511842 13.392,8.39511842 L13.1908571,8.39511842 C13.0620952,8.39511842 12.8788571,8.45006579 12.6590476,8.45006579 C11.983619,8.45006579 10.9619048,8.47410526 10.1535238,8.46036842 C10.168,8.04635526 10.2053333,7.69415789 10.2662857,7.38202632 C10.3249524,7.07828947 10.4057143,6.83217105 10.5009524,6.62955263 C10.5725714,6.47768421 10.6521905,6.35786842 10.7375238,6.25751316 C10.8670476,6.10717105 11.0072381,6.00567105 11.1878095,5.93011842 C11.368,5.85532895 11.5946667,5.81068421 11.8849524,5.81030263 C12.400381,5.80877632 13.1081905,5.96140789 13.9946667,6.30444737 C14.0011429,6.30711842 14.008381,6.30788158 14.0152381,6.31055263 C14.0224762,6.31284211 14.0281905,6.31703947 14.0354286,6.31894737 C14.048381,6.32314474 14.0613333,6.32352632 14.0742857,6.32657895 C14.0948571,6.33153947 14.1150476,6.33611842 14.1352381,6.33878947 C14.1550476,6.34107895 14.1744762,6.34184211 14.1935238,6.34260526 C14.2137143,6.34298684 14.2331429,6.34336842 14.2533333,6.34222368 C14.2731429,6.34069737 14.2921905,6.33802632 14.3108571,6.33459211 C14.3302857,6.33153947 14.3497143,6.32772368 14.368381,6.32276316 C14.3866667,6.31780263 14.4049524,6.31131579 14.4224762,6.30444737 C14.4411429,6.29796053 14.4594286,6.29071053 14.4769524,6.28193421 C14.4940952,6.27353947 14.5100952,6.264 14.5264762,6.25407895 C14.5432381,6.24377632 14.56,6.23271053 14.576,6.22088158 C14.5912381,6.20981579 14.6049524,6.19722368 14.6186667,6.18425 C14.6339048,6.17051316 14.648381,6.15677632 14.6613333,6.14189474 C14.6742857,6.12739474 14.6857143,6.11213158 14.6975238,6.09648684 C14.7093333,6.08046053 14.7211429,6.06405263 14.7314286,6.0465 C14.7413333,6.02971053 14.7500952,6.01101316 14.7588571,5.99231579 C14.7645714,5.98010526 14.7718095,5.96903947 14.7767619,5.95606579 C14.7798095,5.94919737 14.7805714,5.94194737 14.7832381,5.93431579 C14.7851429,5.92782895 14.7893333,5.92210526 14.7912381,5.91523684 C14.9135238,5.51152632 15.1234286,4.83498684 15.303619,4.12105263 C15.3935238,3.76313158 15.4769524,3.39528947 15.5386667,3.04080263 C15.6,2.68593421 15.6415238,2.34709211 15.6419048,2.03114474 C15.6411429,1.89148684 15.6327619,1.75602632 15.6110476,1.62094737 L15.6110476,1.62094737 Z" id="Shape"></path>
                        </g>
                    </g>
                </g>
            </g>
        </g>
    </g>
</svg>