<?xml version="1.0" encoding="UTF-8"?>
<svg width="27px" height="27px" viewBox="0 0 27 27" version="1.1" xmlns="http://www.w3.org/2000/svg" xmlns:xlink="http://www.w3.org/1999/xlink">
    <!-- Generator: Sketch 40.3 (33839) - http://www.bohemiancoding.com/sketch -->
    <title>Group</title>
    <desc>Created with Sketch.</desc>
    <defs></defs>
    <g id="Page-1" stroke="none" stroke-width="1" fill="none" fill-rule="evenodd">
        <g id="Custom-Preset" transform="translate(-656.000000, -2637.000000)" fill="#FFFFFF">
            <g id="Footer" transform="translate(-17.000000, 2403.000000)">
                <g id="Group-2" transform="translate(505.000000, 230.000000)">
                    <g id="noun_4145_cc" transform="translate(168.000000, 4.000000)">
                        <g id="Group">
                            <path d="M20.1067639,0 L6.69925075,0 C3.00538085,0 0,3.00538085 0,6.69925075 L0,20.2167058 C0,23.9102753 3.00538085,26.9159566 6.69925075,26.9159566 L20.1067639,26.9159566 C23.8006338,26.9159566 26.8060146,23.9102753 26.8060146,20.2167058 L26.8060146,6.69925075 C26.8060146,3.00538085 23.8006338,0 20.1067639,0 L20.1067639,0 Z M6.69925075,2.48120398 L20.1067639,2.48120398 C22.4326673,2.48120398 24.3248106,4.37334731 24.3248106,6.69925075 L24.3248106,9.0050282 L17.2224393,9.0050282 C16.1818957,8.26397127 14.9118557,7.82630611 13.5399842,7.82630611 C12.1681127,7.82630611 10.8977723,8.26397127 9.85722864,9.0050282 L2.48090359,9.0050282 L2.48090359,6.69925075 C2.48090359,4.37334731 4.37334731,2.48120398 6.69925075,2.48120398 L6.69925075,2.48120398 Z M16.1815953,14.1894228 C16.1815953,15.6463041 14.9968655,16.8313343 13.5402846,16.8313343 C12.0834033,16.8313343 10.8986735,15.6463041 10.8986735,14.1894228 C10.8986735,12.7331423 12.0837037,11.5481121 13.5402846,11.5481121 C14.9965651,11.5481121 16.1815953,12.7334427 16.1815953,14.1894228 L16.1815953,14.1894228 Z M20.1067639,24.435053 L6.69925075,24.435053 C4.37334731,24.435053 2.48120398,22.5423089 2.48120398,20.2170062 L2.48120398,11.4862322 L7.78154832,11.4862322 C7.39464871,12.3074927 7.17686749,13.2233754 7.17686749,14.1894228 C7.17686749,17.6988545 10.0314536,20.5531403 13.540585,20.5531403 C17.0494159,20.5531403 19.904002,17.6988545 19.904002,14.1894228 C19.904002,13.2233754 19.6862208,12.3074927 19.2993212,11.4862322 L24.3248106,11.4862322 L24.3248106,20.2167058 C24.3248106,22.5423089 22.4326673,24.435053 20.1067639,24.435053 L20.1067639,24.435053 Z" id="Shape"></path>
                            <path d="M22.7887925,7.04443128 C22.7887925,7.45385997 22.45386,7.78879247 22.0444313,7.78879247 L19.7443612,7.78879247 C19.3349325,7.78879247 19,7.45385997 19,7.04443128 L19,4.74436119 C19,4.3349325 19.3346321,4 19.7443612,4 L22.0444313,4 C22.4535596,4 22.7887925,4.3349325 22.7887925,4.74436119 L22.7887925,7.04443128 L22.7887925,7.04443128 Z" id="Shape"></path>
                        </g>
                    </g>
                </g>
            </g>
        </g>
    </g>
</svg>