<?xml version="1.0" encoding="UTF-8"?>
<svg width="42px" height="42px" viewBox="0 0 42 42" version="1.1" xmlns="http://www.w3.org/2000/svg" xmlns:xlink="http://www.w3.org/1999/xlink">
    <!-- Generator: Sketch 41.2 (35397) - http://www.bohemiancoding.com/sketch -->
    <title>Group</title>
    <desc>Created with Sketch.</desc>
    <defs></defs>
    <g id="Page-1" stroke="none" stroke-width="1" fill="none" fill-rule="evenodd">
        <g id="iPhone-SE" transform="translate(-175.000000, -471.000000)">
            <g id="Group" transform="translate(175.000000, 471.000000)">
                <g id="Page-1-Copy" fill="#FFFFFF">
                    <circle id="Oval" cx="21" cy="21" r="21"></circle>
                </g>
                <g id="Page-1" transform="translate(9.483871, 9.483871)" fill="#7AB6C3">
                    <path d="M19.983871,6.54053027 C19.983871,11.0687353 16.2225,12.9974503 11.6008065,12.9974503 C6.98046774,12.9974503 3.21774194,11.5136049 3.21774194,6.54053027 L3.21774194,1.63907645 L8.86606452,5.27848873 L11.2830968,0.00504816615 L14.6292097,5.27848873 L19.983871,0.896049492 L19.983871,6.54053027 Z" id="Fill-1"></path>
                    <polygon id="Fill-2" points="10.3306452 22.8745029 12.8709677 22.8745029 12.8709677 11.516129 10.3306452 11.516129"></polygon>
                    <path d="M21.2408226,21.7812594 C23.6368548,19.6023447 22.6735645,9.37412903 22.6735645,9.37412903 C22.6735645,9.37412903 15.6243387,13.4868069 14.387371,16.43746 C13.794629,17.8471604 14.0473065,22.4012373 14.0473065,22.4012373 L19.7694677,22.4012373 C20.3954032,22.4012373 20.9207419,22.0708979 21.2408226,21.7812594 Z" id="Fill-3"></path>
                    <path d="M1.66712903,21.8478321 C-0.728903226,19.6701794 0.233032258,9.33342819 0.233032258,9.33342819 C0.233032258,9.33342819 7.28225806,13.6089094 8.51922581,16.559247 C9.1106129,17.9692629 9.01035484,22.8745029 9.01035484,22.8745029 L3.20182258,22.8745029 C2.57351613,22.4012373 1.98585484,22.1387327 1.66712903,21.8478321 Z" id="Fill-4"></path>
                </g>
            </g>
        </g>
    </g>
</svg>