<?xml version="1.0" encoding="UTF-8"?>
<svg width="28px" height="23px" viewBox="0 0 28 23" version="1.1" xmlns="http://www.w3.org/2000/svg" xmlns:xlink="http://www.w3.org/1999/xlink">
    <!-- Generator: Sketch 40.3 (33839) - http://www.bohemiancoding.com/sketch -->
    <title>Twitter_Logo_Blue</title>
    <desc>Created with Sketch.</desc>
    <defs></defs>
    <g id="Page-1" stroke="none" stroke-width="1" fill="none" fill-rule="evenodd">
        <g id="Custom-Preset" transform="translate(-488.000000, -2639.000000)" fill="#FFFFFF">
            <g id="Footer" transform="translate(-17.000000, 2403.000000)">
                <g id="Group-2" transform="translate(505.000000, 230.000000)">
                    <g id="Twitter_Logo_Blue" transform="translate(0.000000, 6.000000)">
                        <g id="Logo_FIXED">
                            <path d="M8.70298425,22.4652129 C19.1461226,22.4652129 24.8580787,13.8215006 24.8580787,6.32571222 C24.8580787,6.08020248 24.8580787,5.83579864 24.8414741,5.59250069 C25.9526836,4.7895189 26.9118982,3.79528025 27.6742058,2.65633691 C26.6379497,3.11506608 25.5386751,3.41590052 24.4130774,3.54879799 C25.598357,2.83989642 26.4854587,1.72491717 26.9092908,0.411360452 C25.7947481,1.07208612 24.57541,1.53773262 23.3038953,1.78820562 C21.5439074,-0.0814347955 18.7473033,-0.53903586 16.4822581,0.671998821 C14.2172128,1.8830335 13.047032,4.46152549 13.6278859,6.96160456 C9.06263351,6.73295928 4.80919668,4.57874815 1.92612473,1.0350879 C0.419123364,3.62692397 1.18887047,6.94264887 3.68399028,8.60718336 C2.78041772,8.58042894 1.89654584,8.33691604 1.10696823,7.89719573 L1.10696823,7.96907922 C1.10770784,10.6692362 3.01289244,12.9948794 5.66214252,13.5295431 C4.82623715,13.7572921 3.94919838,13.7905844 3.09840409,13.6268622 C3.8422291,15.9375544 5.97383661,17.5204962 8.40299586,17.5660771 C6.39244825,19.1446737 3.90877071,20.0016307 1.35160821,19.9990565 C0.899858428,19.9981901 0.448548028,19.9708643 0,19.9172199 C2.59654448,21.5819049 5.61776792,22.4648998 8.70298425,22.4607893" id="Shape"></path>
                        </g>
                    </g>
                </g>
            </g>
        </g>
    </g>
</svg>